<svg width="34" height="33" viewBox="0 0 34 33" fill="none" xmlns="http://www.w3.org/2000/svg">
<path d="M5.59609 7.97776L10.855 12.5813L15.5403 6.84202C15.6715 6.68157 15.8373 6.55263 16.0256 6.46481C16.2138 6.37699 16.4195 6.33255 16.6274 6.3348C16.8353 6.33704 17.04 6.38592 17.2263 6.47779C17.4125 6.56965 17.5756 6.70214 17.7032 6.86539L22.1743 12.5799L27.6032 7.91039C27.8164 7.72739 28.0806 7.61354 28.3607 7.58408C28.6407 7.55461 28.9231 7.61094 29.17 7.74553C29.417 7.88011 29.6167 8.08652 29.7425 8.33714C29.8683 8.58776 29.9142 8.87063 29.8739 9.14789L27.8008 23.375H5.42057L3.31564 9.21251C3.27383 8.93371 3.31916 8.64886 3.44549 8.39655C3.57182 8.14423 3.77305 7.93664 4.02192 7.80189C4.27079 7.66714 4.55527 7.61174 4.83685 7.6432C5.11842 7.67466 5.38347 7.79145 5.59609 7.97776ZM5.52837 24.75H27.6419V26.125C27.6419 26.4897 27.4963 26.8394 27.2371 27.0973C26.9779 27.3552 26.6263 27.5 26.2598 27.5H6.91046C6.54391 27.5 6.19237 27.3552 5.93318 27.0973C5.67398 26.8394 5.52837 26.4897 5.52837 26.125V24.75Z" fill="white"/>
</svg>
